<?xml version="1.0" encoding="utf-8"?>
<svg viewBox="0 0 500 500" xmlns="http://www.w3.org/2000/svg">
  <path d="M 357.891 116.133 C 350.625 104.438 340.195 95.242 327.352 89.336 C 314.508 83.43 300 81.008 285.93 82.344 C 271.641 83.867 257.266 89.336 248.742 99.297 C 242.406 90.859 233.883 84.336 224.25 81.43 C 214.617 78.523 204.375 79.375 195.086 82.77 C 182.523 87.414 171.914 96.695 166.258 108.086 C 160.602 119.477 159.594 132.574 160.172 145.328 C 160.75 158.082 162.547 170.664 161.867 183.332 C 161.188 196 157.883 208.582 151.031 219.547 C 144.18 230.512 133.32 239.793 121.305 246.316 C 109.289 252.84 96.047 257.398 83.82 264.23 C 71.594 271.062 59.938 281.344 55.805 294.859 C 51.672 308.375 55.484 324.594 66.852 334.027 C 78.219 343.461 94.352 346.621 108.469 352.508 C 122.586 358.395 136.117 368.164 143.43 381.766 C 150.742 395.367 150.914 413.133 141.805 425.355 C 136.125 432.961 127.594 437.941 124.812 447.016 C 122.031 456.09 127.594 466.992 136.203 470.242 C 144.812 473.492 155.484 470.242 160.773 462.977 C 174.375 444.828 174.375 418.89 159.766 402.508 C 145.156 386.125 119.398 381.766 101.586 370.809 C 92.688 365.09 85.184 357.613 83.141 347.211 C 81.094 336.805 86.242 325.785 95.531 319.094 C 110.328 308.129 131.531 310.523 149.172 303.828 C 175.156 293.676 191.523 265.93 198.93 238.973 C 206.328 212.016 207.094 183.758 216.602 157.676 C 217.625 155.023 219.203 152.543 221.25 150.434 C 225.859 145.66 232.961 144.211 239.531 144.211 C 246.102 144.211 252.695 144.723 259.265 143.355 C 273.262 140.703 284.328 128.719 296.602 120.164 C 305.312 114.082 315.625 110.832 325.773 111.773 C 335.922 112.715 345.891 117.93 351.352 126.23 C 356.812 134.531 357.656 146.086 352.617 154.895 C 347.578 163.703 337.328 169.25 327.266 170.621 C 317.203 171.992 306.906 169.336 297.711 171.734 C 291.391 173.352 285.844 177.383 280.805 181.445 C 275.766 185.508 270.812 189.828 264.75 191.961 C 258.688 194.094 251.086 193.566 246.965 188.371 C 243.422 183.926 243.422 177.723 243.852 172.082 C 244.281 166.441 245.055 160.633 243.422 155.246 C 241.789 149.855 237.414 145.41 232.016 143.955 C 226.617 142.5 220.562 144.637 217.547 149.336 C 214.531 154.031 214.617 160.152 217.375 165.016 C 220.133 169.879 225.602 172.848 226.789 178.305 C 228.852 187.781 217.805 196.449 209.305 192.902 C 200.805 189.355 199.086 176.766 207.352 172.508 C 209.664 171.23 212.328 170.75 214.703 171.137 C 217.074 171.52 219.289 172.762 220.906 174.676 C 223.031 176.836 224.281 179.766 225.773 182.344 C 230.312 189.27 237.242 195.168 245.586 194.266 C 253.93 193.363 260.773 184.094 258.602 176 C 258.086 173.777 256.969 171.758 256.711 169.508 C 256.453 167.258 257.008 164.699 258.688 163.188 C 261.359 160.805 265.758 162.086 269.031 164.047 C 272.305 166.008 275.852 168.27 279.578 167.586 C 281.664 167.203 283.551 166.18 285.406 165.359 C 292.5 162.344 301.094 163.617 307.523 168.102 C 313.953 172.59 318.086 180.418 318.172 188.371 C 318.258 196.324 314.273 204.238 307.781 208.812 C 303.773 211.613 299.016 213.156 295.422 216.598 C 291.828 220.043 289.57 225.66 291.656 230.367 C 293.742 235.074 300.664 237.125 304.789 233.656 C 306.062 232.547 306.906 230.98 308.008 229.785 C 310.953 226.582 315.969 226.055 320.156 227.277 C 324.344 228.5 328.078 231.418 330.766 235.137 C 336.629 242.965 337.328 254.469 332.422 263.027 C 327.516 271.586 317.375 276.973 307.523 275.258 C 297.672 273.547 289.484 264.23 289.828 254.297 C 290.172 244.363 300.32 236.477 299.102 226.625 C 298.523 221.75 294.918 217.754 291.656 214.148 C 285.5 207.393 280.461 199.609 279.062 190.848 C 277.664 182.086 280.289 172.105 288.125 167.586 C 295.961 163.066 307.781 165.617 311.559 173.84 C 315.336 182.062 307.953 192.246 299.102 191.789 C 294.566 191.551 290.172 188.512 289.227 184.094 C 288.281 179.676 291.562 175.191 295.68 173.328 C 299.797 171.465 304.703 171.664 308.434 174.164 C 312.164 176.664 314.359 181.402 313.258 185.68 C 311.98 190.633 307.008 193.73 302.062 194.781 C 297.117 195.832 291.828 195.168 287.406 197.383 C 285.238 198.465 283.375 200.086 281.836 201.965 C 277.492 207.305 277.75 215.746 282.266 220.875 C 286.781 226.004 294.961 226.688 301.016 223.5 C 304.832 221.508 307.867 218.062 311.688 216.086 C 315.508 214.109 321.297 214.195 322.766 218.188 C 323.969 221.523 321.039 225.086 318.172 227.277 C 315.305 229.469 312.25 231.633 310.867 234.941 C 309.484 238.246 310.438 242.879 313.773 244.277 C 318.344 246.27 323.582 241.598 328.289 243.336 C 330.289 244.105 331.734 245.906 333.023 247.598 C 339.188 255.512 348.469 261.316 358.766 262.086 C 369.062 262.855 379.992 258.031 385.977 249.441 C 391.961 240.852 392.281 228.07 385.465 220.023 C 378.648 211.98 363.805 211.812 360.172 201.367 C 358.5 196.578 359.938 191.105 361.328 186.109 C 366.5 168.102 371.672 150.09 376.852 132.074 C 380.547 119.25 384.242 106.43 386.148 93.27 C 388.047 80.109 388.133 66.422 383.328 54.027 C 378.523 41.633 368.172 30.5 354.734 27.508 C 341.297 24.52 326.148 29.816 318.773 41.207 C 315.078 46.711 313.344 53.129 311.559 59.449 C 309.773 65.77 307.695 72.316 303.18 77.262 C 298.664 82.203 291.312 84.855 284.492 84.344 C 277.672 83.828 271.129 80.195 267.266 74.473 C 262.5 67.449 261.617 58.512 259.438 50.258 C 257.266 42.004 253.07 33.516 245.5 29.352 C 237.93 25.184 226.445 27.508 222.602 35.41 C 219.289 42.176 223.895 50.598 222.086 57.961 C 221.023 62.477 217.805 66.082 214.531 69.352 C 205.469 78.406 196.281 87.602 184.102 92.328 C 171.922 97.055 156.285 96.355 146.258 87.258 C 134.07 76.164 134.07 56.703 132.758 40.09 C 131.531 24.691 128.594 9.121 119.305 -2.836 C 110.016 -14.793 93.703 -22.988 77.57 -20.789 C 67.367 -19.363 58.156 -13.762 51.844 -5.832 C 45.531 2.098 42.32 11.941 39.66 21.496 C 37 31.055 34.859 40.77 30.531 49.59 C 26.203 58.41 19.332 66.68 10.055 70.273 C 0.773 73.863 -10.719 72.492 -18.93 66.508 C -27.148 60.52 -32.617 50.426 -33.883 40.09 C -35.152 29.754 -32.445 19.16 -28.477 9.27 C -24.508 -0.617 -19.336 -10.172 -14.164 -19.73 C -8.992 -29.289 -3.82 -38.848 2.793 -47.062 C 9.398 -55.277 18.16 -62.109 28.555 -64.18 C 38.953 -66.254 50.789 -63.051 57.227 -54.496 C 63.664 -45.941 63.664 -32.605 57.922 -23.621 C 52.18 -14.633 41.316 -10.07 30.359 -9.77 C 19.398 -9.473 8.434 -13.504 -1.07 -9.684 C -3.883 -8.402 -6.23 -6.238 -7.555 -3.516 C -11.016 3.68 -5.156 11.809 -1.242 18.762 C 2.672 25.715 5.555 34.305 2.965 41.973 C 0.375 49.645 -8.398 55.363 -16.016 52.52 C -23.633 49.68 -27.07 38.547 -21.359 32.328 C -17.891 28.5 -11.957 27.43 -7.043 29.676 C -2.133 31.922 1.156 37.602 0.273 42.914 C -0.391 46.957 -3.195 50.254 -4.336 54.195 C -5.477 58.141 -4.852 63.012 -1.156 65.652 C 2.539 68.289 8.004 67.371 11.602 64.625 C 15.199 61.879 17.461 57.781 19.828 53.977 C 22.195 50.172 24.766 46.402 28.555 43.941 C 32.344 41.48 37.559 40.812 41.359 43.258 C 45.156 45.707 46.957 51.398 44.078 54.707 C 42.32 56.785 39.316 57.387 36.785 58.43 C 34.258 59.473 31.789 61.93 32.32 64.625 C 32.848 67.32 36.273 69.008 38.781 67.586 C 40.969 66.336 41.441 63.27 42.32 60.738 C 43.203 58.207 45.586 55.906 48.273 56.48 C 49.852 56.801 51.066 58.055 52.672 58.453 C 54.273 58.852 56.594 57.859 56.68 56.223 C 56.938 51.965 47.477 50.258 45.852 54.195 C 44.941 56.309 46.188 58.766 47.734 60.398 C 49.285 62.027 51.242 63.355 52.5 65.223 C 53.148 66.168 53.523 67.285 53.586 68.434 C 53.586 71.02 51.586 73.266 49.336 74.133 C 47.086 75 44.508 74.73 42.32 73.961 C 40.281 73.25 38.52 71.949 36.703 70.957 C 33.031 68.945 28.812 68.59 24.828 69.266 C 20.844 69.945 17.117 71.605 13.703 73.703 C 10.289 75.797 7.109 78.297 3.566 80.141 C 0.023 81.988 -4.164 83.102 -7.984 81.773 C -11.801 80.441 -14.938 75.797 -13.672 71.941 C -12.406 68.09 -7.129 66.594 -3.242 68.262 C 0.648 69.93 2.672 74.047 5.984 76.762 C 9.297 79.473 15.543 80.312 17.719 76.504 C 19.207 73.875 17.719 70.359 15.285 68.691 C 12.848 67.02 9.727 66.852 6.758 66.594 C 3.789 66.336 0.562 65.824 -1.758 63.812 C -4.078 61.801 -5.328 57.816 -3.242 55.391 C -1.242 53.078 2.934 53.848 5.727 55.992 C 8.52 58.141 10.719 61.203 13.961 62.785 C 17.203 64.371 22.195 63.863 23.719 60.566 C 25.07 57.688 23.289 54.195 20.586 52.523 C 17.887 50.852 14.539 50.766 11.43 50.68 C 8.328 50.598 5.043 50.172 2.625 48.164 C 0.203 46.16 -1.328 42.348 0.199 39.559 C 2.156 36.039 7.543 36.125 11.258 37.973 C 14.973 39.82 18.16 43.008 21.961 44.629 C 25.766 46.246 30.797 46.074 33.742 42.941 C 36.688 39.809 36.359 34.391 33.312 31.371 C 30.266 28.352 25.164 28.332 21.273 30.344 C 17.375 32.355 14.801 36.211 13.102 40.387 C 11.398 44.566 10.289 49.02 7.887 52.863 C 5.484 56.707 1.328 59.988 -3.156 59.629 C -7.129 59.324 -10.719 55.906 -10.805 51.922 C -10.891 47.941 -7.473 44.438 -3.672 43.344 C 0.133 42.25 4.359 43.434 7.281 45.828 C 10.203 48.227 12.074 51.539 14.973 53.977 C 17.867 56.418 22.367 57.973 25.852 55.992 C 29.336 54.012 30.266 48.852 27.891 45.57 C 25.516 42.293 20.516 41.801 17.117 44.113 C 13.719 46.426 12.676 51.922 15.199 55.133 C 17.719 58.344 23.891 58.59 26.414 55.391 C 28.938 52.188 27.031 46.613 23.461 45.484 C 19.891 44.355 15.629 48.34 16.977 51.836 C 17.891 54.195 20.844 55.133 23.203 54.195 C 25.562 53.258 27.031 50.598 26.672 48.082 C 26.328 45.723 24.398 43.773 22.121 43.52 C 19.848 43.262 17.547 44.801 16.719 46.941 C 15.891 49.082 16.977 51.582 18.961 52.863 C 20.328 53.758 22.109 53.941 23.633 53.332 C 25.16 52.719 26.328 51.324 26.5 49.676" style="fill: rgb(255, 255, 255);"/>
</svg>